<svg xmlns="http://www.w3.org/2000/svg" xmlns:xlink="http://www.w3.org/1999/xlink" width="200" zoomAndPan="magnify" viewBox="0 0 150 149.999998" height="200" preserveAspectRatio="xMidYMid meet" version="1.0"><defs><g/><clipPath id="id1"><path d="M 45 34.828125 L 105 34.828125 L 105 85.078125 L 45 85.078125 Z M 45 34.828125 " clip-rule="nonzero"/></clipPath></defs><rect x="-15" width="180" fill="#ffffff" y="-15" height="179.999997" fill-opacity="1"/><rect x="-15" width="180" fill="#ffffff" y="-15" height="179.999997" fill-opacity="1"/><rect x="-15" width="180" fill="#010d1e" y="-15" height="179.999997" fill-opacity="1"/><g clip-path="url(#id1)"><path fill="#00ccff" d="M 62.003906 85.078125 L 62.003906 65.066406 L 56.570312 60.605469 L 56.570312 80.628906 Z M 62.003906 39.289062 L 64.925781 41.679688 L 75 49.960938 L 87.996094 39.289062 L 93.429688 34.828125 L 93.429688 49.855469 L 99.566406 44.808594 L 104.984375 40.363281 L 104.984375 71.136719 L 99.566406 75.585938 L 99.566406 51.863281 L 93.429688 56.910156 L 93.429688 80.628906 L 87.996094 85.078125 L 87.996094 46.328125 L 75 57.015625 L 64.925781 48.734375 L 62.003906 46.617188 L 62.003906 54.300781 L 75 64.972656 L 85.074219 56.707031 L 85.074219 63.761719 L 75 72.027344 L 50.449219 51.863281 L 50.449219 75.585938 L 45.015625 71.136719 L 45.015625 40.363281 L 50.449219 44.808594 L 56.570312 49.855469 L 56.570312 34.828125 Z M 62.003906 39.289062 " fill-opacity="1" fill-rule="evenodd"/></g><g fill="#ffffff" fill-opacity="1"><g transform="translate(37.494257, 102.14422)"><g><path d="M 10.378906 -9.886719 L 8.007812 -9.886719 C 7.734375 -9.886719 7.488281 -9.785156 7.289062 -9.589844 L 3.632812 -5.929688 L 2.472656 -5.929688 L 2.472656 -9.886719 L 0.496094 -9.886719 L 0.496094 0 L 2.472656 0 L 2.472656 -3.953125 L 3.632812 -3.953125 L 7.289062 -0.296875 C 7.488281 -0.0976562 7.734375 0 8.007812 0 L 10.378906 0 L 10.378906 -1.976562 L 8.402344 -1.976562 L 5.4375 -4.941406 L 8.402344 -7.910156 L 10.378906 -7.910156 Z M 10.378906 -9.886719 "/></g></g></g><g fill="#ffffff" fill-opacity="1"><g transform="translate(50.320649, 102.14422)"><g><path d="M 2.472656 -9.886719 C 1.382812 -9.886719 0.496094 -8.996094 0.496094 -7.910156 L 0.496094 0 L 2.472656 0 L 2.472656 -3.953125 L 8.402344 -3.953125 L 8.402344 0 L 10.378906 0 L 10.378906 -7.910156 C 10.378906 -8.996094 9.488281 -9.886719 8.402344 -9.886719 Z M 2.472656 -7.910156 L 8.402344 -7.910156 L 8.402344 -5.929688 L 2.472656 -5.929688 Z M 2.472656 -7.910156 "/></g></g></g><g fill="#ffffff" fill-opacity="1"><g transform="translate(63.14704, 102.14422)"><g><path d="M 10.378906 -9.886719 L 2.472656 -9.886719 C 1.382812 -9.886719 0.496094 -8.996094 0.496094 -7.910156 L 0.496094 -5.929688 C 0.496094 -4.84375 1.382812 -3.953125 2.472656 -3.953125 L 8.402344 -3.953125 L 8.402344 -1.976562 L 0.496094 -1.976562 L 0.496094 0 L 8.402344 0 C 9.488281 0 10.378906 -0.890625 10.378906 -1.976562 L 10.378906 -3.953125 C 10.378906 -5.042969 9.488281 -5.929688 8.402344 -5.929688 L 2.472656 -5.929688 L 2.472656 -7.910156 L 10.378906 -7.910156 Z M 10.378906 -9.886719 "/></g></g></g><g fill="#ffffff" fill-opacity="1"><g transform="translate(75.973433, 102.14422)"><g><path d="M 8.402344 -9.886719 L 0.496094 -9.886719 L 0.496094 0 L 2.472656 0 L 2.472656 -3.953125 L 8.402344 -3.953125 C 9.488281 -3.953125 10.378906 -4.84375 10.378906 -5.929688 L 10.378906 -7.910156 C 10.378906 -8.996094 9.488281 -9.886719 8.402344 -9.886719 Z M 2.472656 -5.929688 L 2.472656 -7.910156 L 8.402344 -7.910156 L 8.402344 -5.929688 Z M 2.472656 -5.929688 "/></g></g></g><g fill="#ffffff" fill-opacity="1"><g transform="translate(88.799823, 102.14422)"><g><path d="M 10.378906 -9.886719 L 2.472656 -9.886719 C 1.382812 -9.886719 0.496094 -8.996094 0.496094 -7.910156 L 0.496094 -1.976562 C 0.496094 -0.890625 1.382812 0 2.472656 0 L 10.378906 0 L 10.378906 -1.976562 L 2.472656 -1.976562 L 2.472656 -3.953125 L 10.378906 -3.953125 L 10.378906 -5.929688 L 2.472656 -5.929688 L 2.472656 -7.910156 L 10.378906 -7.910156 Z M 10.378906 -9.886719 "/></g></g></g><g fill="#ffffff" fill-opacity="1"><g transform="translate(101.626213, 102.14422)"><g><path d="M 10.378906 -7.910156 C 10.378906 -8.996094 9.488281 -9.886719 8.402344 -9.886719 L 0.496094 -9.886719 L 0.496094 0 L 2.472656 0 L 2.472656 -3.953125 L 3.632812 -3.953125 L 7.289062 -0.296875 C 7.488281 -0.0976562 7.734375 0 8.007812 0 L 10.378906 0 L 10.378906 -1.976562 L 8.402344 -1.976562 L 6.425781 -3.953125 L 8.402344 -3.953125 C 9.488281 -3.953125 10.378906 -4.84375 10.378906 -5.929688 Z M 8.402344 -7.910156 L 8.402344 -5.929688 L 2.472656 -5.929688 L 2.472656 -7.910156 Z M 8.402344 -7.910156 "/></g></g></g></svg>